/* XPM */
static char *result[] = {
/* columns rows colors chars-per-pixel */
"64 64 36 1 ",
"  c black",
". c #40FC40",
"X c #CCC400",
"o c #FCF440",
"O c #D8FCD8",
"+ c #04B000",
"@ c #048800",
"# c #FCFC7C",
"$ c #BC0000",
"% c #FC0000",
"& c #FCFC9C",
"* c #046400",
"= c #044000",
"- c #B8BCFC",
"; c #5C60FC",
": c #0000E0",
"> c #706C00",
", c #E4D800",
"< c #9C9C00",
"1 c #A86840",
"2 c #FCA85C",
"3 c #5C4020",
"4 c #000088",
"5 c #FCB080",
"6 c #880000",
"7 c #C80000",
"8 c #580000",
"9 c #A40000",
"0 c #007070",
"q c #585400",
"w c #FC2020",
"e c #980088",
"r c #484848",
"t c gray33",
"y c #646464",
"u c gray36",
/* pixels */
"                                                                ",
"                                                                ",
"                                                                ",
"                                                                ",
"                                                                ",
"                                                                ",
"                                                                ",
"                                                                ",
"                                                                ",
"                                                                ",
"                                                                ",
"                                                                ",
"                                                                ",
"                                                                ",
"                                                                ",
"                                                                ",
"                                                                ",
"                                                                ",
"                                                                ",
"                                                                ",
"                                                                ",
"                                                                ",
"                                                                ",
"                                                                ",
"                                                                ",
"                                                                ",
"                                                                ",
"                                                                ",
"                                                                ",
"                                                                ",
"                                                                ",
"                                                                ",
"                                                                ",
"                                                                ",
"                                                                ",
"                                                                ",
"                                                                ",
"                                                                ",
"                                                                ",
"                                                                ",
"                                                                ",
"                                                                ",
"                                                                ",
"                                                                ",
"                                                                ",
"                                                                ",
"                                                                ",
"                                                                ",
"                                                                ",
"                                                                ",
"                            ..                                  ",
"                      XXoo O++@ ##                              ",
"                    X$%#XX&*@*=-;:>,<                           ",
"                    X$X,#12o*=34:4353<                          ",
"                     X>,6ooooooooooooo<                         ",
"                       ,7X<8888888888<<                         ",
"                       ,7X889999999999<                         ",
"                       ,7X89,90,<09,99<                         ",
"                       ,7X89<<<qq<<<89<                         ",
"                    ,< ,wX89<80<<08<89<  ,<                     ",
"                 X<   <eXX<9989888898<<rrty                     ",
"                    X< <<X<<<<<<<<<<<<<r>quyy                   ",
"                           ttttttttttttttttuyy                  ",
"                          X<,<                                  "
};
