/* XPM */
static char *dbc7e9c732c24357d9b89cbf66ed021e[] = {
/* columns rows colors chars-per-pixel */
"64 64 5 1 ",
"  c #043000",
". c #044000",
"X c #2C2C2C",
"o c #044C00",
"O c #045800",
/* pixels */
"        ....XX..XX                 .....X.XX    .......XXX      ",
"          ....X..X                 o...XX.XX      ......XXX     ",
"         ......X.XX               .o...X.XXX       ......XX     ",
"         ..XX...X.X              .oo..X.XXX         X..o.XX     ",
"  .     ..X.  ....X.            .oo..XXXX            X...XX     ",
"   ......X     .oX...  .      oOo...XXX              ..o.XX     ",
"      ..       .o..X ..     .OO...XX.                .oooX      ",
"      .        .o..X.  .   .oOo.XXXX..    ...        ooOOoo     ",
"  .. .         .o..X   .  .oOoo.XX    ...oOOO.       ....OOo    ",
"    .          .O..       .OOo.XX                   ..  ..OO    ",
"    .          .O..       .Ooo.XX              .   ..    ..O    ",
"   .           .O..       .Oo..X                ....      .O.   ",
"   .           .O..        oo..X                  .       .o.   ",
"   .          ..o.X        .Oo.X                  ..      ...   ",
"    .         .o..X        ..o.X                   .     .....  ",
"             .o..X         X..o.X        ...           .oo.. .. ",
"         .......X..         ...o.      ......         .oo.X   . ",
"       o.....XXX ..         X....X   ...XXX...        .o.X    . ",
"     .o..XXXX                X.........XX   ..        .o..    . ",
"    .O.X.                     X......XXX    ..         ....  .. ",
"    OoX                        .XXXXXX      ..          ....  . ",
"   .O.            .ooOO                    ...            ...   ",
"   .O.           ooOOOOO.                 ...              ..   ",
"   .O.         .oo.....oO.               ...               ..   ",
"   .o.        .oo.XXX...oo.            ...                 ..   ",
"   .o.       .o.X     X..o.         .....                 ..X   ",
"   ...      ...X       X.o.        .o..                 ...X    ",
"    ...    ..XX         ...      .oo.                ....XX     ",
"    .......XX          ..oX     .o..             .....XXXX      ",
"     .......           ...X    .o..             O...XX  ..      ",
"      . .             .o.X    .OO..           OOo.XX     ..     ",
"      .             ....X    .OO...          .Oo.X        ..    ",
"      .           .....X    .OOo.X..         .OoX          .  . ",
"  .  .           ....XX     OOo.X  .        .OO..          ...  ",
"   ...        ....XXX      OOo.XX  ..       .Oo.X          ..   ",
"   .         ...XX         Oo..X    ..      .oo.X          ..   ",
"  .        ...XX .        OOo.X    .OOo     ..o.X         ...   ",
"         ...X    .        Oo..X   .oo.O.     .oo.X        ...   ",
"       ...X      .        oo..X  ........     ....        ..    ",
"      .OX       .         Oo.X   ...XXX..      ......     oo    ",
"     .O.        .         Oo.X   ..X   X.      .XX.....  .O.    ",
"     oO        .          oo.X   .X     .      .  XXX....oo.    ",
"     o.        .          .o.X   .X     .      .     XX..O..    ",
"     o.       .oo.        .o..X ..X    ..     ..       XoO..    ",
"     o...   .ooOOo.       ........X   ...    . ..       oo ..   ",
"     X...........O..       X.....X   .....      .      .O.  .   ",
"      X.....XXXX.oo.X       XXXXX  ...XXX...     .    .oo   ..  ",
"       XXXXX     .o.X             ..XX   . .      .  ..o     .  ",
"                  o.X            ..X     .  .       ...       . ",
"                  o.X            .X     .         .....       . ",
"                  ..X           ..               ..XX         . ",
"                  .X            .X              ..X           . ",
"                 ..X            .X             ..X           .  ",
"                 ..X            ..            ...               ",
"               ...X              ..           . ..              ",
"              .o..X               .Oo        .   ..             ",
"            ..oo.X                 Oo.       .    ..            ",
"          ....o.X              ..ooO......   .     .            ",
"        .... .o.X             .......     .  .     .            ",
"      .. ..   .....          ..    ..      . ..    ......       ",
"     .   .     .   .   .    ..    ..       .  ..   ..    .      ",
"    .   .     .     ...    . .    .        .    .....  ......   ",
"   ..   .    .        ..   .  .  .         .      .....     ..  ",
"  .  . ...   .          .. .   ..         .      ..          .  "
};
