/* XPM */
static char *result[] = {
/* columns rows colors chars-per-pixel */
"64 64 37 1 ",
"  c black",
". c #848400",
"X c #706C00",
"o c #9C9C00",
"O c #B4AC00",
"+ c #CCC400",
"@ c #FCFC54",
"# c #B4B4B4",
"$ c #FCF400",
"% c gray99",
"& c gainsboro",
"* c gray55",
"= c #C0C0C0",
"- c #ECECEC",
"; c #646464",
": c #7C7C7C",
"> c gray66",
", c #585400",
"< c #D0D0D0",
"1 c gray44",
"2 c #989898",
"3 c gray22",
"4 c #202020",
"5 c gray33",
"6 c #484848",
"7 c #044000",
"8 c #2C2C2C",
"9 c #046400",
"0 c #048800",
"q c #045800",
"w c #047C00",
"e c #04A400",
"r c #049800",
"t c #04B000",
"y c #044C00",
"u c #047000",
"i c #04BC00",
/* pixels */
"                             ...XX                              ",
"                            oOoXOoX                             ",
"                           O+o   OoX                            ",
"                           +@+ + +OX                            ",
"                            +@+@X+X                             ",
"                             X+@XXX                             ",
"                            @@+X#.+$$                           ",
"                          %&*.=%%&&=@$                          ",
"                         -#;#..&%%=++$                          ",
"                        &%:;..&%&;;.+.                          ",
"                        %&>  ==&=>.,,                           ",
"                             =:    #*                           ",
"                             =:    -<                           ",
"                             =:    -<                           ",
"                             =:    -<                           ",
"                           <<<>:   -<                           ",
"                          <%%%&=>  <-<                          ",
"                         <%%%%%&>  #-<                          ",
"                         %%%<%%=>  <-<                          ",
"                         %%>1<2::: --                           ",
"                         <&13--2*: --                           ",
"                          *=%%21:;>-<                           ",
"                           &&<% :;>-<                           ",
"                            %%>:==&<#                           ",
"                            ##:==&>#2                           ",
"                           >#<<2::<2;                           ",
"                           =-%%-&&:1                            ",
"                           >2=->::#:;                           ",
"                           =-%%-&=:*                            ",
"                            2=->::#;1                           ",
"                            =&%&==**                            ",
"                              &  >*;                            ",
"                                 &>;                            ",
"                                :>*:4                           ",
"                              &&>&&*44                          ",
"                            1&=*&#5444                          ",
"                            6OOO663447                          ",
"                            6...633879                          ",
"                             ,,,677997                          ",
"                            0q9wwwww97                          ",
"                            e0qerrew77                          ",
"                            etw09ewq77                          ",
"                            e0q9yurwu7                          ",
"                             0q09eeu7                           ",
"                            rewewu9q77                          ",
"                            e9reee4u77                          ",
"                             ew9we7u77                          ",
"                             w990r9rw7                          ",
"                             e wuu3qw                           ",
"                             e reu5qy7                          ",
"                             e eru;u97                          ",
"                             i rwu:wt                           ",
"                               5eu*w77                          ",
"                               *e52:                            ",
"                               i05>:5                           ",
"                               =2=&=:                           ",
"                               =2=&:5                           ",
"                              >==&>                             ",
"                              ===&>                             ",
"                              2=&>:                             ",
"                                22                              ",
"                                  ;;55555555;;                  ",
"                               ;56388888883665;                 ",
"                             ;;56388888883365;                  "
};
