/* XPM */
static char *result[] = {
/* columns rows colors chars-per-pixel */
"64 64 119 2 ",
"   c black",
".  c #B4B4B4",
"X  c gray99",
"o  c gray55",
"O  c gainsboro",
"+  c gray66",
"@  c #7C7C7C",
"#  c gray33",
"$  c #C0C0C0",
"%  c #9C6038",
"&  c #A86840",
"*  c #744C28",
"=  c #868686",
"-  c gray57",
";  c #D0D0D0",
":  c #9D9D9D",
">  c #E78B58",
",  c gray86",
"<  c gray70",
"1  c #B9B9B9",
"2  c gray85",
"3  c #CBCBCB",
"4  c #FCA470",
"5  c #DC8854",
"6  c #ECECEC",
"7  c gray64",
"8  c gray81",
"9  c gray79",
"0  c #B7B7B7",
"q  c gray65",
"w  c gray83",
"e  c gray80",
"r  c #979797",
"t  c #E4D8CE",
"y  c #9D643E",
"u  c #9F6139",
"i  c #9A5F37",
"p  c #9E633B",
"a  c #9E6843",
"s  c #A1633B",
"d  c #905932",
"f  c #976C51",
"g  c #A36E4A",
"h  c #85542F",
"j  c #AA8369",
"k  c #CFC3BB",
"l  c #9B6039",
"z  c #A2643C",
"x  c #955C35",
"c  c #9C623C",
"v  c #D3CCC7",
"b  c #A59991",
"n  c #A48977",
"m  c #A5663E",
"M  c #84532E",
"N  c #A27B60",
"B  c #9E7E6B",
"V  c #9D6038",
"C  c #9A5E37",
"Z  c #995E37",
"A  c #C6AC9B",
"S  c #170E07",
"D  c #FC2020",
"F  c #7C4C2C",
"G  c #5B3720",
"H  c #B99176",
"J  c #A0816D",
"K  c #7F4D2C",
"L  c #A6714D",
"P  c #A57656",
"I  c #AB7857",
"U  c #9B5F37",
"Y  c #9B6038",
"T  c #9C603A",
"R  c #9C5F38",
"E  c #9C633A",
"W  c #A87858",
"Q  c #9C613C",
"!  c #9E7458",
"~  c #A47658",
"^  c #A37150",
"/  c #A37354",
"(  c #824F2E",
")  c #9C5F37",
"_  c #A26E4B",
"`  c #9B5F36",
"'  c #9F6C49",
"]  c #CAAB95",
"[  c #A67554",
"{  c #A06B48",
"}  c #9D633D",
"|  c #9B6138",
" . c #9C623B",
".. c #A26A45",
"X. c #AE7D5B",
"o. c #A97A5B",
"O. c #A06945",
"+. c #955B34",
"@. c #8B5531",
"#. c #82502E",
"$. c #995E36",
"%. c #A57250",
"&. c #57351E",
"*. c #1F130B",
"=. c #D40000",
"-. c #A07960",
";. c #CFB3A1",
":. c #FC9C60",
">. c #AC988C",
",. c #B2ADAA",
"<. c #B0A6A0",
"1. c #AE9F96",
"2. c #AFA39B",
"3. c #472B19",
"4. c #A47C64",
"5. c #0C0704",
"6. c #F0945C",
"7. c #980000",
"8. c #989898",
/* pixels */
"                                                                                                                                ",
"                                                                                                                                ",
"                                                                                                                                ",
"                                                                                                                                ",
"                                                                                                                                ",
"                                                                                                                                ",
"                                                                                                                                ",
"                                                                                                                                ",
"                                                                                                                                ",
"                                                                                                                                ",
"                                                                                                                                ",
"                                                                                                                                ",
"                                                                                                                                ",
"                                                                                                                                ",
"                                                                                                                                ",
"                                                                                                                                ",
"                                                                                                                                ",
"                                                                                                                                ",
"                                                                                                                                ",
"                                                                                                                                ",
"                                                                                                                                ",
"                                                                                                                                ",
"                                                                                                                                ",
"                                                                                                                                ",
"                                                                                                                                ",
"                                                                                                                                ",
"                                                                                                                                ",
"                                                                                                                                ",
"                                                                                                                                ",
"                                                                                                                                ",
"                                                                                                                                ",
"                                                                                                                                ",
"                                                                                                                                ",
"                                                                                                                                ",
"                                                                                                                                ",
"                                                                                                                                ",
"                                                                                                                                ",
"                                                                                                                                ",
"                                                                                                                                ",
"                                                                                                                                ",
"                                                                                                                                ",
"                                                                                                                                ",
"                                                                                                                                ",
"                                .             .             .             .             .             .                         ",
"                              . X o         . X o         . X o         . X o         . X o         . X o                       ",
"                              O X +         O X +         O X +         O X +         O X +         O X +                       ",
"                            . O X + @     . O X + @     . O X + @     . O X + @     . O X + @     . O X + @                     ",
"                            . O O + @     . O O + @     . O O + @     . O O + @     . O O + @     . O O + @                     ",
"                              @ # #         @ # #         @ # #         @ # #         @ # #         @ # #                       ",
"                              O + #         O + #         O + #         O + #         O + #         O + #                       ",
"                              O $ #         O $ #         O $ #         O $ #         O $ #         O $ #                       ",
"                              % & *         % & *         % & *         % & *         % & *         % & *                       ",
"                              % & *         % & *         % & *         % & *         % & *         % & *                       ",
"                              % & *         % & *         % & *         % & *         % & *         % & *                       ",
"                              % & *         % & *         % & *         % & *         % & *         % & * = X +                 ",
"                  + O $ -     % & *     ;   % & *   O   ; % & * :   $ > % & *       ; % & *       , % & * X O   X +             ",
"                              % & * < + ; 1 % & * 2 X X O % & * 3 O + 4 % & * O O +   % & *     ;   % & * 5                     ",
"          + ; 6 X $ +       7 % & * , 8 + 9 % & * 0 6 O + % & * q $ + w % & * e . 6 r % & * . 6 . 8 % & * 6             6       ",
"                          t y % u i p X ; a % s d f O + g % & h j $ k l % z x c v b n % m M N . t B % V C Z A S   O O           ",
"          o . D D D @   F G Z H J K L P I U Y T R E W Q ! % ~ ^ / P ( ) _ % ` ' ] [ { } |  ...X.o.O.+.@.#.$.%.&.F *.            ",
"          . . =.=.=.=.              + X + o o   O   . O -.;.O + 4 :.;   6 $ + + >.,.<.1.2.. . 3.4.5.*.6 4 6.        X           ",
"          o @ 7.7.7.@           6     o o     O 6 .     ; X X O $ +   $ 6 X O + . . $ O $   . O O         6     X               ",
"                          O O .                 ; 8..         +   O               $ $ $ 8.                                      ",
"                        . . 8.                                                      8.8.                                        "
};
